<svg xmlns="http://www.w3.org/2000/svg" xmlns:xlink="http://www.w3.org/1999/xlink" width="500" zoomAndPan="magnify" viewBox="0 0 375 374.999991" height="500" preserveAspectRatio="xMidYMid meet" version="1.0"><defs><g/><clipPath id="a6ec0d30a7"><path d="M 9.128906 134.761719 L 366.128906 134.761719 L 366.128906 356.761719 L 9.128906 356.761719 Z M 9.128906 134.761719 " clip-rule="nonzero"/></clipPath><clipPath id="68dffba6e2"><path d="M 107.839844 18.613281 L 266.839844 18.613281 L 266.839844 230.863281 L 107.839844 230.863281 Z M 107.839844 18.613281 " clip-rule="nonzero"/></clipPath></defs><g clip-path="url(#a6ec0d30a7)"><path fill="#000000" d="M 79.191406 216.664062 L 79.398438 216.664062 C 81.910156 200.542969 89.648438 186.101562 100.941406 175.632812 C 113.488281 163.910156 130.21875 157.003906 148.625 157.003906 C 155.734375 157.003906 162.429688 158.050781 168.910156 159.933594 C 173.722656 161.398438 178.324219 163.28125 182.714844 165.792969 C 188.570312 157.003906 196.308594 149.675781 205.511719 144.234375 C 215.96875 138.164062 227.886719 134.8125 240.855469 134.8125 C 260.097656 134.8125 277.664062 142.558594 290.210938 155.328125 C 302.96875 167.886719 310.707031 185.472656 310.707031 204.730469 C 310.707031 207.871094 310.5 211.21875 310.078125 214.359375 C 309.871094 215.617188 309.871094 216.664062 309.660156 217.917969 C 324.71875 220.851562 338.3125 228.804688 348.144531 239.898438 C 359.4375 252.25 366.128906 268.578125 366.128906 286.582031 C 366.128906 306.046875 358.390625 323.421875 345.632812 336.191406 C 332.875 348.753906 315.519531 356.707031 296.066406 356.707031 L 79.191406 356.707031 C 59.742188 356.707031 42.382812 348.753906 29.625 336.191406 C 17.078125 323.421875 9.128906 306.046875 9.128906 286.582031 C 9.128906 267.320312 17.078125 249.738281 29.625 237.175781 C 42.382812 224.410156 59.742188 216.664062 79.191406 216.664062 Z M 79.191406 216.664062 " fill-opacity="1" fill-rule="nonzero"/></g><g clip-path="url(#68dffba6e2)"><path fill="#ffbd59" d="M 187.5 18.613281 C 143.570312 18.613281 107.84375 54.339844 107.84375 98.269531 C 107.84375 153.484375 179.746094 226.023438 182.800781 229.089844 C 184.101562 230.378906 185.800781 231.027344 187.5 231.027344 C 189.199219 231.027344 190.898438 230.378906 192.199219 229.089844 C 195.253906 226.023438 267.15625 153.484375 267.15625 98.269531 C 267.15625 54.339844 231.429688 18.613281 187.5 18.613281 Z M 187.5 138.097656 C 165.542969 138.097656 147.671875 120.226562 147.671875 98.269531 C 147.671875 76.3125 165.542969 58.441406 187.5 58.441406 C 209.457031 58.441406 227.328125 76.3125 227.328125 98.269531 C 227.328125 120.226562 209.457031 138.097656 187.5 138.097656 Z M 187.5 138.097656 " fill-opacity="1" fill-rule="nonzero"/></g><g fill="#ffbd59" fill-opacity="1"><g transform="translate(69.197474, 313.087403)"><g><path d="M 32.65625 -26.75 C 32.65625 -25.46875 32.65625 -24.195312 32.65625 -22.9375 C 32.65625 -21.6875 32.59375 -20.425781 32.46875 -19.15625 C 32.226562 -16.445312 31.640625 -13.882812 30.703125 -11.46875 C 29.773438 -9.0625 28.515625 -6.945312 26.921875 -5.125 C 25.335938 -3.3125 23.40625 -1.875 21.125 -0.8125 C 18.851562 0.25 16.25 0.78125 13.3125 0.78125 C 12.164062 0.78125 10.96875 0.679688 9.71875 0.484375 C 8.476562 0.285156 7.242188 -0.00390625 6.015625 -0.390625 C 4.796875 -0.773438 3.628906 -1.253906 2.515625 -1.828125 C 1.398438 -2.398438 0.410156 -3.066406 -0.453125 -3.828125 L 1.5625 -17.265625 C 2.832031 -16.035156 4.242188 -15.035156 5.796875 -14.265625 C 7.359375 -13.492188 9.0625 -13.109375 10.90625 -13.109375 C 12.09375 -13.109375 13.097656 -13.28125 13.921875 -13.625 C 14.742188 -13.976562 15.425781 -14.457031 15.96875 -15.0625 C 16.507812 -15.664062 16.9375 -16.375 17.25 -17.1875 C 17.5625 -18 17.785156 -18.863281 17.921875 -19.78125 C 18.066406 -20.707031 18.15625 -21.65625 18.1875 -22.625 C 18.226562 -23.601562 18.25 -24.566406 18.25 -25.515625 C 18.25 -28.953125 18.070312 -32.375 17.71875 -35.78125 C 17.375 -39.195312 17.070312 -42.613281 16.8125 -46.03125 L 31.6875 -47 C 32.332031 -40.25 32.65625 -33.5 32.65625 -26.75 Z M 32.65625 -26.75 "/></g></g></g><g fill="#ffbd59" fill-opacity="1"><g transform="translate(103.090617, 313.087403)"><g><path d="M 39.46875 -31.234375 C 39.46875 -29.128906 39.15625 -27.265625 38.53125 -25.640625 C 37.90625 -24.023438 37.046875 -22.609375 35.953125 -21.390625 C 34.859375 -20.179688 33.578125 -19.15625 32.109375 -18.3125 C 30.640625 -17.46875 29.0625 -16.78125 27.375 -16.25 C 25.695312 -15.71875 23.960938 -15.328125 22.171875 -15.078125 C 20.378906 -14.828125 18.613281 -14.691406 16.875 -14.671875 L 16.875 0.453125 L 1.75 0.453125 C 1.75 -4.503906 1.757812 -9.4375 1.78125 -14.34375 C 1.800781 -19.257812 1.835938 -24.21875 1.890625 -29.21875 C 1.929688 -31.851562 1.941406 -34.488281 1.921875 -37.125 C 1.898438 -39.769531 1.953125 -42.4375 2.078125 -45.125 C 4.847656 -45.945312 7.617188 -46.5625 10.390625 -46.96875 C 13.160156 -47.382812 16.015625 -47.59375 18.953125 -47.59375 C 20.617188 -47.59375 22.285156 -47.457031 23.953125 -47.1875 C 25.617188 -46.914062 27.210938 -46.488281 28.734375 -45.90625 C 30.265625 -45.320312 31.6875 -44.585938 33 -43.703125 C 34.3125 -42.828125 35.441406 -41.785156 36.390625 -40.578125 C 37.335938 -39.367188 38.085938 -37.988281 38.640625 -36.4375 C 39.191406 -34.894531 39.46875 -33.160156 39.46875 -31.234375 Z M 25.0625 -30.125 C 25.0625 -31.53125 24.632812 -32.628906 23.78125 -33.421875 C 22.925781 -34.210938 21.816406 -34.609375 20.453125 -34.609375 C 19.992188 -34.609375 19.519531 -34.566406 19.03125 -34.484375 C 18.550781 -34.410156 18.09375 -34.320312 17.65625 -34.21875 L 17.265625 -24.734375 C 17.566406 -24.691406 17.859375 -24.671875 18.140625 -24.671875 C 18.421875 -24.671875 18.710938 -24.671875 19.015625 -24.671875 C 19.796875 -24.671875 20.546875 -24.800781 21.265625 -25.0625 C 21.992188 -25.320312 22.640625 -25.691406 23.203125 -26.171875 C 23.773438 -26.660156 24.226562 -27.234375 24.5625 -27.890625 C 24.894531 -28.554688 25.0625 -29.300781 25.0625 -30.125 Z M 25.0625 -30.125 "/></g></g></g><g fill="#ffbd59" fill-opacity="1"><g transform="translate(142.697546, 313.087403)"><g><path d="M 39.703125 -31.296875 C 39.703125 -29.609375 39.554688 -28.078125 39.265625 -26.703125 C 38.972656 -25.328125 38.507812 -24.066406 37.875 -22.921875 C 37.25 -21.773438 36.4375 -20.710938 35.4375 -19.734375 C 34.445312 -18.765625 33.25 -17.835938 31.84375 -16.953125 L 39.578125 -3.1875 L 24.96875 -0.328125 L 19.96875 -14.15625 L 15.9375 -14.03125 L 15.359375 -0.515625 L 1.390625 -0.515625 C 1.503906 -5.453125 1.609375 -10.363281 1.703125 -15.25 C 1.796875 -20.144531 1.910156 -25.0625 2.046875 -30 C 2.085938 -32.488281 2.128906 -34.953125 2.171875 -37.390625 C 2.210938 -39.835938 2.300781 -42.304688 2.4375 -44.796875 C 3.945312 -45.359375 5.4375 -45.820312 6.90625 -46.1875 C 8.382812 -46.5625 9.863281 -46.847656 11.34375 -47.046875 C 12.820312 -47.253906 14.320312 -47.394531 15.84375 -47.46875 C 17.375 -47.550781 18.941406 -47.59375 20.546875 -47.59375 C 23.015625 -47.59375 25.398438 -47.25 27.703125 -46.5625 C 30.015625 -45.882812 32.054688 -44.863281 33.828125 -43.5 C 35.597656 -42.132812 37.019531 -40.4375 38.09375 -38.40625 C 39.164062 -36.375 39.703125 -34.003906 39.703125 -31.296875 Z M 25.15625 -30.25 C 25.15625 -31.164062 25.03125 -32 24.78125 -32.75 C 24.53125 -33.507812 24.160156 -34.164062 23.671875 -34.71875 C 23.191406 -35.269531 22.585938 -35.703125 21.859375 -36.015625 C 21.140625 -36.328125 20.289062 -36.484375 19.3125 -36.484375 C 18.882812 -36.484375 18.460938 -36.457031 18.046875 -36.40625 C 17.640625 -36.351562 17.238281 -36.269531 16.84375 -36.15625 L 16.328125 -24.09375 L 17.109375 -24.09375 C 18.035156 -24.09375 18.976562 -24.207031 19.9375 -24.4375 C 20.90625 -24.675781 21.773438 -25.046875 22.546875 -25.546875 C 23.316406 -26.046875 23.941406 -26.679688 24.421875 -27.453125 C 24.910156 -28.234375 25.15625 -29.164062 25.15625 -30.25 Z M 25.15625 -30.25 "/></g></g></g><g fill="#ffbd59" fill-opacity="1"><g transform="translate(182.986244, 313.087403)"><g><path d="M 41.78125 -24.859375 C 41.78125 -22.890625 41.550781 -20.988281 41.09375 -19.15625 C 40.644531 -17.332031 39.992188 -15.617188 39.140625 -14.015625 C 38.285156 -12.421875 37.242188 -10.957031 36.015625 -9.625 C 34.796875 -8.289062 33.421875 -7.144531 31.890625 -6.1875 C 30.367188 -5.238281 28.707031 -4.5 26.90625 -3.96875 C 25.113281 -3.445312 23.210938 -3.1875 21.203125 -3.1875 C 19.253906 -3.1875 17.394531 -3.429688 15.625 -3.921875 C 13.863281 -4.421875 12.210938 -5.117188 10.671875 -6.015625 C 9.140625 -6.921875 7.75 -8.003906 6.5 -9.265625 C 5.257812 -10.535156 4.203125 -11.941406 3.328125 -13.484375 C 2.453125 -15.035156 1.769531 -16.695312 1.28125 -18.46875 C 0.789062 -20.25 0.546875 -22.097656 0.546875 -24.015625 C 0.546875 -25.898438 0.773438 -27.742188 1.234375 -29.546875 C 1.691406 -31.359375 2.347656 -33.066406 3.203125 -34.671875 C 4.054688 -36.273438 5.085938 -37.742188 6.296875 -39.078125 C 7.503906 -40.421875 8.859375 -41.578125 10.359375 -42.546875 C 11.867188 -43.523438 13.5 -44.285156 15.25 -44.828125 C 17.007812 -45.367188 18.863281 -45.640625 20.8125 -45.640625 C 23.945312 -45.640625 26.804688 -45.148438 29.390625 -44.171875 C 31.984375 -43.203125 34.191406 -41.8125 36.015625 -40 C 37.847656 -38.195312 39.265625 -36.015625 40.265625 -33.453125 C 41.273438 -30.890625 41.78125 -28.023438 41.78125 -24.859375 Z M 27.359375 -24.015625 C 27.359375 -24.953125 27.222656 -25.859375 26.953125 -26.734375 C 26.691406 -27.609375 26.300781 -28.382812 25.78125 -29.0625 C 25.257812 -29.75 24.613281 -30.300781 23.84375 -30.71875 C 23.070312 -31.144531 22.191406 -31.359375 21.203125 -31.359375 C 20.179688 -31.359375 19.269531 -31.171875 18.46875 -30.796875 C 17.664062 -30.429688 16.976562 -29.929688 16.40625 -29.296875 C 15.832031 -28.660156 15.394531 -27.914062 15.09375 -27.0625 C 14.789062 -26.207031 14.640625 -25.300781 14.640625 -24.34375 C 14.640625 -23.4375 14.769531 -22.523438 15.03125 -21.609375 C 15.289062 -20.703125 15.679688 -19.878906 16.203125 -19.140625 C 16.722656 -18.410156 17.363281 -17.816406 18.125 -17.359375 C 18.894531 -16.910156 19.789062 -16.6875 20.8125 -16.6875 C 21.820312 -16.6875 22.734375 -16.882812 23.546875 -17.28125 C 24.359375 -17.6875 25.046875 -18.226562 25.609375 -18.90625 C 26.171875 -19.59375 26.601562 -20.378906 26.90625 -21.265625 C 27.207031 -22.148438 27.359375 -23.066406 27.359375 -24.015625 Z M 27.359375 -24.015625 "/></g></g></g><g fill="#ffbd59" fill-opacity="1"><g transform="translate(225.385136, 313.087403)"><g><path d="M 42.59375 -2.796875 L 26.484375 -0.71875 L 24.546875 -8.046875 L 17.140625 -8.046875 L 15.515625 -0.71875 L -1.03125 -2.34375 L 11.875 -45.578125 L 29.9375 -46.484375 Z M 23.375 -17.984375 L 20.90625 -29.28125 L 18.5 -17.984375 Z M 23.375 -17.984375 "/></g></g></g><g fill="#ffbd59" fill-opacity="1"><g transform="translate(267.004876, 313.087403)"><g><path d="M 38.4375 -25.78125 C 38.4375 -22.75 38.046875 -20.03125 37.265625 -17.625 C 36.484375 -15.226562 35.394531 -13.101562 34 -11.25 C 32.601562 -9.394531 30.941406 -7.816406 29.015625 -6.515625 C 27.085938 -5.222656 24.976562 -4.160156 22.6875 -3.328125 C 20.394531 -2.492188 17.953125 -1.878906 15.359375 -1.484375 C 12.773438 -1.097656 10.125 -0.90625 7.40625 -0.90625 C 6.382812 -0.90625 5.382812 -0.929688 4.40625 -0.984375 C 3.4375 -1.046875 2.441406 -1.128906 1.421875 -1.234375 L 2.34375 -43.5 C 4.71875 -44.257812 7.164062 -44.796875 9.6875 -45.109375 C 12.207031 -45.421875 14.710938 -45.578125 17.203125 -45.578125 C 20.296875 -45.578125 23.140625 -45.144531 25.734375 -44.28125 C 28.335938 -43.414062 30.578125 -42.144531 32.453125 -40.46875 C 34.335938 -38.789062 35.804688 -36.722656 36.859375 -34.265625 C 37.910156 -31.804688 38.4375 -28.976562 38.4375 -25.78125 Z M 16.359375 -13.3125 C 17.660156 -13.507812 18.84375 -13.90625 19.90625 -14.5 C 20.976562 -15.09375 21.90625 -15.828125 22.6875 -16.703125 C 23.46875 -17.578125 24.066406 -18.570312 24.484375 -19.6875 C 24.910156 -20.800781 25.125 -21.988281 25.125 -23.25 C 25.125 -24.476562 24.992188 -25.628906 24.734375 -26.703125 C 24.472656 -27.773438 24.050781 -28.703125 23.46875 -29.484375 C 22.882812 -30.273438 22.113281 -30.90625 21.15625 -31.375 C 20.207031 -31.84375 19.039062 -32.097656 17.65625 -32.140625 Z M 16.359375 -13.3125 "/></g></g></g></svg>